# xmcd
#
# Track frame offsets: 
#        150
#        20182
#        39259
#        71134
#        90799
#        104880
#        128965
#        151231
#        168909
#        195366
#        212923
#        251200
#        265624
#        282187
#        308082
#
# Disc length: 4407 seconds
#
# Revision: 1
# Processed by: cddbd v1.5.2PL0 Copyright (c) Steve Scherf et al.
# Submitted via: ExactAudioCopyFreeDBPlugin 1.0
#
DISCID=d011350f
DTITLE=Jazz Collection (Various Artists) - Club Jazz CD4
DYEAR=2010
DGENRE=Jazz
TTITLE0=Gill Scott Heron - Is that jazz
TTITLE1=Sarah Vaughan - Just a gigolo
TTITLE2=Michel Petrucciani - So what
TTITLE3=Stan Kenton - Its all right with me
TTITLE4=Erroll Garner - Where or when
TTITLE5=Stan Getz - Mosquito Knees
TTITLE6=Louis Armstrong - Ole Miss
TTITLE7=Duke Ellington - Sophisticated Lady
TTITLE8=Ray Charles - I got a woman
TTITLE9=Benny Goodman - My Gal Sal
TTITLE10=Thelonious Monk - Rhythm a ning
TTITLE11=Billie Holiday - Willow weep for me
TTITLE12=Ella Fitzgerald - I cant give you anything but love
TTITLE13=Bireli Lagrene - Deauville en ville
TTITLE14=Elisabeth Kontomanou - Farewell
EXTD=YEAR: 2010
EXTT0=
EXTT1=
EXTT2=
EXTT3=
EXTT4=
EXTT5=
EXTT6=
EXTT7=
EXTT8=
EXTT9=
EXTT10=
EXTT11=
EXTT12=
EXTT13=
EXTT14=
PLAYORDER=
